<svg width="26.774" height="26.774" xmlns="http://www.w3.org/2000/svg">

 <g>
  <title>background</title>
  <rect fill="none" id="canvas_background" height="402" width="582" y="-1" x="-1"/>
 </g>
 <g>
  <title>Layer 1</title>
  <g id="svg_1">
   <path fill="#38eacf" stroke="#38eacf" id="svg_2" d="m26.396,13.917l-9.979,8.254c0,0 -1.186,1.255 -1.186,-0.103c0,-1.364 0,-4.654 0,-4.654s-0.801,0 -2.026,0c-3.51,0 -9.899,0 -12.498,0c0,0 -0.707,0.183 -0.707,-0.89c0,-1.071 0,-5.779 0,-6.547c0,-0.765 0.593,-0.746 0.593,-0.746c2.526,0 9.129,0 12.522,0c1.103,0 1.819,0 1.819,0s0,-2.64 0,-4.299c0,-1.656 1.239,-0.405 1.239,-0.405s9.327,7.025 10.304,8.002c0.712,0.709 -0.081,1.388 -0.081,1.388z"/>
   <g id="svg_3"/>
   <g id="svg_4"/>
   <g id="svg_5"/>
   <g id="svg_6"/>
   <g id="svg_7"/>
   <g id="svg_8"/>
   <g id="svg_9"/>
   <g id="svg_10"/>
   <g id="svg_11"/>
   <g id="svg_12"/>
   <g id="svg_13"/>
   <g id="svg_14"/>
   <g id="svg_15"/>
   <g id="svg_16"/>
   <g id="svg_17"/>
  </g>
  <g id="svg_18"/>
  <g id="svg_19"/>
  <g id="svg_20"/>
  <g id="svg_21"/>
  <g id="svg_22"/>
  <g id="svg_23"/>
  <g id="svg_24"/>
  <g id="svg_25"/>
  <g id="svg_26"/>
  <g id="svg_27"/>
  <g id="svg_28"/>
  <g id="svg_29"/>
  <g id="svg_30"/>
  <g id="svg_31"/>
  <g id="svg_32"/>
 </g>
</svg>