<svg width="44.56" height="44.56" xmlns="http://www.w3.org/2000/svg">

 <g>
  <title>background</title>
  <rect fill="none" id="canvas_background" height="402" width="582" y="-1" x="-1"/>
 </g>
 <g>
  <title>Layer 1</title>
  <g id="svg_1">
   <g id="svg_2">
    <path fill="#4ee069" id="svg_3" d="m23.297,38.74c-1.17,1.588 -2.992,2.564 -4.962,2.661c-1.97,0.098 -3.878,-0.696 -5.198,-2.162l-11.829,-13.127c-1.88,-2.085 -1.713,-5.299 0.372,-7.179c2.087,-1.88 5.299,-1.712 7.179,0.374l8.369,9.288c0.124,0.138 0.304,0.212 0.489,0.203c0.186,-0.009 0.356,-0.102 0.467,-0.25l17.202,-23.331c1.665,-2.26 4.847,-2.741 7.108,-1.075c2.259,1.666 2.739,4.848 1.073,7.107l-20.27,27.491z"/>
   </g>
  </g>
  <g id="svg_4"/>
  <g id="svg_5"/>
  <g id="svg_6"/>
  <g id="svg_7"/>
  <g id="svg_8"/>
  <g id="svg_9"/>
  <g id="svg_10"/>
  <g id="svg_11"/>
  <g id="svg_12"/>
  <g id="svg_13"/>
  <g id="svg_14"/>
  <g id="svg_15"/>
  <g id="svg_16"/>
  <g id="svg_17"/>
  <g id="svg_18"/>
 </g>
</svg>