<svg width="475.2" height="475.2" xmlns="http://www.w3.org/2000/svg">

 <g>
  <title>background</title>
  <rect fill="none" id="canvas_background" height="402" width="582" y="-1" x="-1"/>
 </g>
 <g>
  <title>Layer 1</title>
  <g id="svg_1">
   <g id="svg_2">
    <path fill="#de2666" id="svg_3" d="m405.6,69.6c-44.9,-44.9 -104.5,-69.6 -168,-69.6s-123.1,24.7 -168,69.6s-69.6,104.5 -69.6,168s24.7,123.1 69.6,168s104.5,69.6 168,69.6s123.1,-24.7 168,-69.6s69.6,-104.5 69.6,-168s-24.7,-123.1 -69.6,-168zm-19.1,316.9c-39.8,39.8 -92.7,61.7 -148.9,61.7s-109.1,-21.9 -148.9,-61.7c-82.1,-82.1 -82.1,-215.7 0,-297.8c39.8,-39.8 92.7,-61.7 148.9,-61.7s109.1,21.9 148.9,61.7c82.1,82.1 82.1,215.7 0,297.8z"/>
    <path fill="#de2666" id="svg_4" d="m342.3,132.9c-5.3,-5.3 -13.8,-5.3 -19.1,0l-85.6,85.6l-85.6,-85.6c-5.3,-5.3 -13.8,-5.3 -19.1,0c-5.3,5.3 -5.3,13.8 0,19.1l85.6,85.6l-85.6,85.6c-5.3,5.3 -5.3,13.8 0,19.1c2.6,2.6 6.1,4 9.5,4s6.9,-1.3 9.5,-4l85.6,-85.6l85.6,85.6c2.6,2.6 6.1,4 9.5,4c3.5,0 6.9,-1.3 9.5,-4c5.3,-5.3 5.3,-13.8 0,-19.1l-85.4,-85.6l85.6,-85.6c5.3,-5.3 5.3,-13.8 0,-19.1z"/>
   </g>
  </g>
  <g id="svg_5"/>
  <g id="svg_6"/>
  <g id="svg_7"/>
  <g id="svg_8"/>
  <g id="svg_9"/>
  <g id="svg_10"/>
  <g id="svg_11"/>
  <g id="svg_12"/>
  <g id="svg_13"/>
  <g id="svg_14"/>
  <g id="svg_15"/>
  <g id="svg_16"/>
  <g id="svg_17"/>
  <g id="svg_18"/>
  <g id="svg_19"/>
 </g>
</svg>