<svg width="297.796" height="297.796" xmlns="http://www.w3.org/2000/svg">

 <g>
  <title>background</title>
  <rect fill="none" id="canvas_background" height="402" width="582" y="-1" x="-1"/>
 </g>
 <g>
  <title>Layer 1</title>
  <g id="svg_1">
   <path fill="#38eacf" id="svg_2" d="m148.899,0c-61.441,0 -111.25,49.808 -111.25,111.249c0,94.309 111.25,186.547 111.25,186.547s111.248,-92.238 111.248,-186.547c0,-61.441 -49.807,-111.249 -111.248,-111.249zm-0.001,203.762c-51.288,0 -93.014,-41.726 -93.014,-93.014s41.726,-93.014 93.014,-93.014s93.014,41.726 93.014,93.014s-41.726,93.014 -93.014,93.014z"/>
   <path fill="#38eacf" id="svg_3" d="m148.898,49.528c-33.757,0 -61.22,27.463 -61.22,61.22c0,33.757 27.463,61.22 61.22,61.22s61.22,-27.463 61.22,-61.22c0,-33.757 -27.463,-61.22 -61.22,-61.22zm0,90.44c-16.137,0 -29.22,-13.083 -29.22,-29.22s13.083,-29.22 29.22,-29.22s29.22,13.083 29.22,29.22s-13.083,29.22 -29.22,29.22z"/>
  </g>
  <g id="svg_4"/>
  <g id="svg_5"/>
  <g id="svg_6"/>
  <g id="svg_7"/>
  <g id="svg_8"/>
  <g id="svg_9"/>
  <g id="svg_10"/>
  <g id="svg_11"/>
  <g id="svg_12"/>
  <g id="svg_13"/>
  <g id="svg_14"/>
  <g id="svg_15"/>
  <g id="svg_16"/>
  <g id="svg_17"/>
  <g id="svg_18"/>
 </g>
</svg>